<svg width="80" height="84" viewBox="0 0 80 84" fill="none" xmlns="http://www.w3.org/2000/svg">
<path d="M67.9344 8.35069C67.9344 3.74037 64.1289 0 59.4472 0H8.47095V84H67.9344V8.35069Z" fill="white"/>
<path d="M59.4432 0C54.7573 0 50.9722 3.73636 50.9722 8.35069C50.9722 12.9971 54.7533 16.7415 59.4432 16.7415H8.47102C3.78518 16.7375 0 12.9971 0 8.35069C0 3.73636 3.78518 0 8.47102 0H59.4432Z" fill="#F5F5F5"/>
<path d="M22.7679 26.6055H18.9259C17.4735 26.6055 16.2686 27.7721 16.2686 29.2113V33.0319C16.2686 34.4671 17.4735 35.6417 18.9259 35.6417H22.7679C24.2406 35.6417 25.4252 34.4711 25.4252 33.0319V29.2113C25.4293 27.7721 24.2406 26.6055 22.7679 26.6055Z" fill="#F5F5F5"/>
<path d="M22.7679 44.6641H18.9259C17.4735 44.6641 16.2686 45.8708 16.2686 47.306V51.1265C16.2686 52.5617 17.4735 53.7324 18.9259 53.7324H22.7679C24.2406 53.7324 25.4252 52.5657 25.4252 51.1265V47.306C25.4293 45.8708 24.2406 44.6641 22.7679 44.6641Z" fill="#F5F5F5"/>
<path d="M22.7679 62.7617H18.9259C17.4735 62.7617 16.2686 63.9724 16.2686 65.4076V69.1841C16.2686 70.6233 17.4735 71.83 18.9259 71.83H22.7679C24.2406 71.83 25.4252 70.6233 25.4252 69.1841V65.4076C25.4293 63.9724 24.2406 62.7617 22.7679 62.7617Z" fill="#F5F5F5"/>
<path d="M59.4431 25.1289H32.387V28.0394H59.4431V25.1289Z" fill="#F5F5F5"/>
<path d="M59.4431 43.2266H32.387V46.1331H59.4431V43.2266Z" fill="#F5F5F5"/>
<path d="M50.1526 52.2578H32.387V55.2044H50.1526V52.2578Z" fill="#F5F5F5"/>
<path d="M53.4022 34.1953H32.387V37.1018H53.4022V34.1953Z" fill="#F5F5F5"/>
<path d="M50.1526 61.3242H32.387V64.2347H50.1526V61.3242Z" fill="#F5F5F5"/>
<path d="M53.4022 70.3594H32.387V73.2699H53.4022V70.3594Z" fill="#F5F5F5"/>
<path d="M80 59.888C80 66.4628 74.5879 71.8308 67.9344 71.8308C61.2566 71.8308 55.8486 66.4628 55.8486 59.888C55.8486 53.2772 61.2566 47.9453 67.9344 47.9453C74.5879 47.9453 80 53.2772 80 59.888Z" fill="#EB607A"/>
<path d="M74.6244 57.8887H69.9386V53.2383H65.9059V57.8887H61.2241V61.8536H65.9059V66.5H69.9386V61.8536H74.6244V57.8887Z" fill="white"/>
</svg>
