<svg width="84" height="82" viewBox="0 0 84 82" fill="none" xmlns="http://www.w3.org/2000/svg">
<g clip-path="url(#clip0)">
<path d="M73.0847 0H10.9152C8.57508 0 6.66772 1.91519 6.66772 4.28482V61.8824H77.3322V4.28482C77.3322 1.91519 75.4249 0 73.0847 0Z" fill="#00B5FF"/>
<path d="M0 74.0471V78.0236C0 80.2065 1.77513 82.004 3.94695 82.004H80.049C82.2209 82.004 83.996 80.2065 83.996 78.0236V74.0471H0Z" fill="#00B5FF"/>
<path d="M0 74.047H84L77.3323 61.8823H6.66775L0 74.047Z" fill="#06ADF1"/>
<path d="M65.2829 44.8245H18.6968C16.1884 44.8245 14.1047 46.8898 14.1047 49.4907C14.1047 52.0186 16.1844 54.1204 18.6968 54.1204H65.2869C67.8154 54.1204 69.875 52.0186 69.875 49.4907C69.871 46.8898 67.8114 44.8245 65.2829 44.8245Z" fill="white"/>
<path d="M14.125 7.38086V41.1888C14.9184 40.6897 15.828 40.3854 16.8097 40.3854H67.2306C68.2123 40.3854 69.1379 40.6897 69.9113 41.1888V7.38086H14.125Z" fill="white"/>
<path d="M54.8205 16.9089H29.1753C26.3263 16.9089 23.9822 19.2786 23.9822 22.1838V54.1212H60.0177V22.1838C60.0177 19.2786 57.6735 16.9089 54.8205 16.9089Z" fill="#EB607A"/>
<path d="M52.801 54.118L52.801 16.9058H43.4165L43.4165 54.118H52.801Z" fill="white"/>
<path d="M37.1093 37.7887C36.7486 37.7887 36.4281 37.6345 36.1836 37.4032C35.9152 37.1354 35.803 36.7905 35.803 36.4456C35.803 36.1007 35.9152 35.7558 36.1836 35.5286C36.6565 35.0295 37.542 35.0295 38.0309 35.5286C38.2753 35.7558 38.4116 36.1007 38.4116 36.4456C38.4116 36.7905 38.2753 37.1354 38.0309 37.4032C37.7905 37.6345 37.4499 37.7887 37.1093 37.7887Z" fill="white"/>
<path d="M35.8071 41.3065C35.8071 40.5802 36.3721 39.9675 37.1094 39.9675C37.8267 39.9675 38.4117 40.5843 38.4117 41.3065C38.4117 42.0369 37.8227 42.605 37.1094 42.605C36.3721 42.605 35.8071 42.0328 35.8071 41.3065Z" fill="white"/>
<path d="M37.1093 47.462C36.7486 47.462 36.4281 47.3484 36.1836 47.0806C35.9152 46.8494 35.803 46.5044 35.803 46.123C35.803 45.8147 35.9152 45.4332 36.1836 45.202C36.6565 44.7029 37.542 44.7029 38.0309 45.202C38.2753 45.4332 38.4116 45.8147 38.4116 46.123C38.4116 46.5044 38.2753 46.8494 38.0309 47.0806C37.7905 47.3484 37.4499 47.462 37.1093 47.462Z" fill="white"/>
<path d="M38.4157 22.8323H35.8071V32.4691H38.4157V22.8323Z" fill="white"/>
<path d="M31.9122 22.8323H29.2876V44.8245H31.9122V22.8323Z" fill="white"/>
</g>
<defs>
<clipPath id="clip0">
<rect width="84" height="82" fill="white"/>
</clipPath>
</defs>
</svg>
