<svg width="2566" height="2577" viewBox="0 0 2566 2577" fill="none" xmlns="http://www.w3.org/2000/svg">
<rect width="502.013" height="502.013" rx="74" transform="matrix(0.707116 0.707098 -0.707116 0.707098 835.989 30)" fill="#002760"/>
<rect x="1306" y="482.012" width="502.013" height="502.013" rx="74" transform="rotate(45 1306 482.012)" fill="#002760"/>
<rect x="2204.02" y="1415.04" width="502.013" height="502.013" rx="74" transform="rotate(45 2204.02 1415.04)" fill="#00B5FF"/>
<rect x="354.977" y="482.012" width="502.013" height="502.013" rx="74" transform="rotate(45 354.977 482.012)" fill="#00B5FF"/>
<rect x="824.989" y="934.023" width="502.013" height="502.013" rx="74" transform="rotate(45 824.989 934.023)" fill="#00B5FF"/>
<rect x="1734.01" y="1867.05" width="502.013" height="502.013" rx="74" transform="rotate(45 1734.01 1867.05)" fill="#00B5FF"/>
<rect x="384.978" y="1386.03" width="502.013" height="502.013" rx="74" transform="rotate(45 384.978 1386.03)" fill="#00B5FF"/>
<rect x="2211.02" y="482.012" width="502.013" height="502.013" rx="74" transform="rotate(45 2211.02 482.012)" fill="#00B5FF"/>
<rect x="1752.98" y="957.023" width="502.013" height="502.013" rx="74" transform="rotate(45 1752.98 957.023)" fill="#002760"/>
<rect x="1282.97" y="1409.04" width="502.013" height="502.013" rx="74" transform="rotate(45 1282.97 1409.04)" fill="#002760"/>
<rect x="838.957" y="1862.05" width="502.013" height="502.013" rx="74" transform="rotate(45 838.957 1862.05)" fill="#002760"/>
<rect x="1771" width="502" height="502" rx="74" transform="rotate(45 1771 0)" fill="#00B5FF"/>
</svg>